%TF.GenerationSoftware,KiCad,Pcbnew,(6.0.0)*%
%TF.CreationDate,2022-01-24T15:51:04+11:00*%
%TF.ProjectId,Battery Monitor,42617474-6572-4792-904d-6f6e69746f72,rev?*%
%TF.SameCoordinates,Original*%
%TF.FileFunction,Soldermask,Bot*%
%TF.FilePolarity,Negative*%
%FSLAX46Y46*%
G04 Gerber Fmt 4.6, Leading zero omitted, Abs format (unit mm)*
G04 Created by KiCad (PCBNEW (6.0.0)) date 2022-01-24 15:51:04*
%MOMM*%
%LPD*%
G01*
G04 APERTURE LIST*
G04 Aperture macros list*
%AMRoundRect*
0 Rectangle with rounded corners*
0 $1 Rounding radius*
0 $2 $3 $4 $5 $6 $7 $8 $9 X,Y pos of 4 corners*
0 Add a 4 corners polygon primitive as box body*
4,1,4,$2,$3,$4,$5,$6,$7,$8,$9,$2,$3,0*
0 Add four circle primitives for the rounded corners*
1,1,$1+$1,$2,$3*
1,1,$1+$1,$4,$5*
1,1,$1+$1,$6,$7*
1,1,$1+$1,$8,$9*
0 Add four rect primitives between the rounded corners*
20,1,$1+$1,$2,$3,$4,$5,0*
20,1,$1+$1,$4,$5,$6,$7,0*
20,1,$1+$1,$6,$7,$8,$9,0*
20,1,$1+$1,$8,$9,$2,$3,0*%
G04 Aperture macros list end*
%ADD10C,1.400000*%
%ADD11R,1.400000X1.400000*%
%ADD12R,1.700000X1.700000*%
%ADD13O,1.700000X1.700000*%
%ADD14R,2.785000X1.400000*%
%ADD15RoundRect,0.237500X-0.237500X0.250000X-0.237500X-0.250000X0.237500X-0.250000X0.237500X0.250000X0*%
%ADD16C,1.750000*%
G04 APERTURE END LIST*
D10*
X196450000Y-98500000D03*
X196450000Y-100500000D03*
X196450000Y-102500000D03*
X196450000Y-104500000D03*
D11*
X196450000Y-106500000D03*
D12*
X165325000Y-111525000D03*
D13*
X165325000Y-108985000D03*
X167865000Y-111525000D03*
X167865000Y-108985000D03*
X170405000Y-111525000D03*
X170405000Y-108985000D03*
D12*
X132350000Y-96870000D03*
D13*
X132350000Y-94330000D03*
X132350000Y-91790000D03*
X132350000Y-89250000D03*
X132350000Y-86710000D03*
D12*
X185000000Y-92125000D03*
D13*
X187540000Y-92125000D03*
X190080000Y-92125000D03*
X192620000Y-92125000D03*
X195160000Y-92125000D03*
X197700000Y-92125000D03*
D14*
X141408000Y-109250000D03*
X136592000Y-109250000D03*
X141408000Y-104750000D03*
X136592000Y-104750000D03*
D15*
X144850000Y-98837500D03*
X144850000Y-100662500D03*
X144850000Y-89837500D03*
X144850000Y-91662500D03*
D16*
X168810000Y-87260000D03*
X166270000Y-87260000D03*
X163730000Y-87260000D03*
X161190000Y-87260000D03*
D14*
X141408000Y-100250000D03*
X136592000Y-100250000D03*
X141408000Y-95750000D03*
X136592000Y-95750000D03*
D15*
X144850000Y-116837500D03*
X144850000Y-118662500D03*
D14*
X141408000Y-118250000D03*
X136592000Y-118250000D03*
X141408000Y-113750000D03*
X136592000Y-113750000D03*
D15*
X144850000Y-107837500D03*
X144850000Y-109662500D03*
D14*
X141408000Y-91250000D03*
X136592000Y-91250000D03*
X141408000Y-86750000D03*
X136592000Y-86750000D03*
M02*
