M48
; DRILL file {KiCad (6.0.0)} date Mon Jan 24 15:51:07 2022
; FORMAT={-:-/ absolute / metric / decimal}
; #@! TF.CreationDate,2022-01-24T15:51:07+11:00
; #@! TF.GenerationSoftware,Kicad,Pcbnew,(6.0.0)
; #@! TF.FileFunction,Plated,1,2,PTH
FMAT,2
METRIC
; #@! TA.AperFunction,Plated,PTH,ViaDrill
T1C0.200
; #@! TA.AperFunction,Plated,PTH,ViaDrill
T2C0.300
; #@! TA.AperFunction,Plated,PTH,ViaDrill
T3C0.600
; #@! TA.AperFunction,Plated,PTH,ComponentDrill
T4C0.900
; #@! TA.AperFunction,Plated,PTH,ComponentDrill
T5C1.000
%
G90
G05
T1
X143.004Y-93.771
X143.204Y-94.371
X143.404Y-93.171
X145.004Y-96.971
X147.722Y-94.688
X148.4Y-94.801
X149.004Y-92.971
X149.204Y-91.171
X149.204Y-92.171
X154.604Y-85.971
X159.404Y-97.971
X161.004Y-105.672
X161.604Y-96.171
X162.004Y-97.171
X162.433Y-106.072
X163.004Y-94.771
X163.604Y-105.971
X163.925Y-94.971
X164.804Y-96.971
X166.004Y-90.771
X166.204Y-102.771
X167.103Y-105.371
X167.204Y-101.771
X167.604Y-103.171
X170.804Y-96.971
X171.404Y-105.371
X174.204Y-98.371
X175.604Y-105.771
X176.246Y-105.836
X176.903Y-102.594
X177.804Y-108.771
X178.46Y-108.24
X179.204Y-100.971
X180.782Y-89.271
X181.204Y-110.171
X181.804Y-88.971
X186.204Y-104.171
X189.604Y-101.571
X189.604Y-102.971
X191.404Y-94.371
T2
X139.004Y-95.371
X141.604Y-88.571
X141.804Y-101.45
X143.879Y-100.983
X144.804Y-88.771
X144.804Y-97.971
X144.804Y-106.771
X144.804Y-115.971
X149.604Y-87.371
X150.204Y-100.971
X160.004Y-103.771
X161.804Y-98.771
X161.804Y-100.371
X164.204Y-115.371
X170.404Y-99.571
X173.204Y-101.771
X173.204Y-103.571
X175.604Y-111.371
X180.804Y-103.171
X181.137Y-101.907
X184.604Y-109.371
T3
X134.004Y-110.971
X134.004Y-112.171
X158.204Y-111.371
X158.204Y-112.571
T4
X196.45Y-98.5
X196.45Y-100.5
X196.45Y-102.5
X196.45Y-104.5
X196.45Y-106.5
T5
X132.35Y-86.71
X132.35Y-89.25
X132.35Y-91.79
X132.35Y-94.33
X132.35Y-96.87
X161.19Y-87.26
X163.73Y-87.26
X165.325Y-108.985
X165.325Y-111.525
X166.27Y-87.26
X167.865Y-108.985
X167.865Y-111.525
X168.81Y-87.26
X170.405Y-108.985
X170.405Y-111.525
X185.0Y-92.125
X187.54Y-92.125
X190.08Y-92.125
X192.62Y-92.125
X195.16Y-92.125
X197.7Y-92.125
T0
M30
