%FSLAX45Y45*%
G04 Gerber Fmt 4.5, Leading zero omitted, Abs format (unit mm)*
G04 Created by KiCad (PCBNEW (6.0.0)) date 2022-01-24 15:48:01*
%MOMM*%
%LPD*%
G01*
G04 APERTURE LIST*
%TA.AperFunction,Profile*%
%ADD10C,0.150000*%
%TD*%
%ADD11C,0.200000*%
G04 APERTURE END LIST*
D10*
X13000000Y-8000000D02*
X20000000Y-8000000D01*
X20000000Y-8000000D02*
X20000000Y-12500000D01*
X20000000Y-12500000D02*
X13000000Y-12500000D01*
X13000000Y-12500000D02*
X13000000Y-8000000D01*
D11*
X13250119Y-12817976D02*
X13250119Y-12617976D01*
X13297738Y-12617976D01*
X13326309Y-12627500D01*
X13345357Y-12646548D01*
X13354881Y-12665595D01*
X13364405Y-12703690D01*
X13364405Y-12732262D01*
X13354881Y-12770357D01*
X13345357Y-12789405D01*
X13326309Y-12808452D01*
X13297738Y-12817976D01*
X13250119Y-12817976D01*
X13450119Y-12817976D02*
X13450119Y-12684643D01*
X13450119Y-12722738D02*
X13459643Y-12703690D01*
X13469167Y-12694167D01*
X13488214Y-12684643D01*
X13507262Y-12684643D01*
X13573928Y-12817976D02*
X13573928Y-12684643D01*
X13573928Y-12617976D02*
X13564405Y-12627500D01*
X13573928Y-12637024D01*
X13583452Y-12627500D01*
X13573928Y-12617976D01*
X13573928Y-12637024D01*
X13697738Y-12817976D02*
X13678690Y-12808452D01*
X13669167Y-12789405D01*
X13669167Y-12617976D01*
X13802500Y-12817976D02*
X13783452Y-12808452D01*
X13773928Y-12789405D01*
X13773928Y-12617976D01*
X14031071Y-12817976D02*
X14031071Y-12617976D01*
X14097738Y-12760833D01*
X14164405Y-12617976D01*
X14164405Y-12817976D01*
X14345357Y-12817976D02*
X14345357Y-12713214D01*
X14335833Y-12694167D01*
X14316786Y-12684643D01*
X14278690Y-12684643D01*
X14259643Y-12694167D01*
X14345357Y-12808452D02*
X14326309Y-12817976D01*
X14278690Y-12817976D01*
X14259643Y-12808452D01*
X14250119Y-12789405D01*
X14250119Y-12770357D01*
X14259643Y-12751309D01*
X14278690Y-12741786D01*
X14326309Y-12741786D01*
X14345357Y-12732262D01*
X14440595Y-12684643D02*
X14440595Y-12884643D01*
X14440595Y-12694167D02*
X14459643Y-12684643D01*
X14497738Y-12684643D01*
X14516786Y-12694167D01*
X14526309Y-12703690D01*
X14535833Y-12722738D01*
X14535833Y-12779881D01*
X14526309Y-12798928D01*
X14516786Y-12808452D01*
X14497738Y-12817976D01*
X14459643Y-12817976D01*
X14440595Y-12808452D01*
X14621548Y-12798928D02*
X14631071Y-12808452D01*
X14621548Y-12817976D01*
X14612024Y-12808452D01*
X14621548Y-12798928D01*
X14621548Y-12817976D01*
X14621548Y-12694167D02*
X14631071Y-12703690D01*
X14621548Y-12713214D01*
X14612024Y-12703690D01*
X14621548Y-12694167D01*
X14621548Y-12713214D01*
M02*
